<svg width="20" height="20" viewBox="0 0 20 20" fill="none" xmlns="http://www.w3.org/2000/svg">
<path fill-rule="evenodd" clip-rule="evenodd" d="M11.4312 13.2909C12.6059 13.2909 13.562 14.1958 13.562 15.3081L13.562 18.1688C13.562 18.4078 13.7629 18.5994 14.0205 18.6049L15.88 18.6049C17.3454 18.6049 18.5366 17.4833 18.5366 16.1051L18.5366 7.99171C18.5298 7.51741 18.2927 7.071 17.8859 6.77433L11.4537 1.88436C10.5902 1.23243 9.38244 1.23243 8.5161 1.88622L2.1278 6.77247C1.70537 7.07844 1.46829 7.52485 1.46341 8.00752L1.46341 16.1051C1.46341 17.4833 2.65463 18.6049 4.12 18.6049L5.99707 18.6049C6.26146 18.6049 6.4761 18.405 6.4761 18.1595C6.4761 18.1055 6.48293 18.0516 6.49463 18.0004L6.49463 15.3081C6.49463 14.2023 7.44488 13.2983 8.61073 13.2909L11.4312 13.2909ZM15.88 19.9999L14.0029 19.9999C12.9278 19.9758 12.0985 19.1713 12.0985 18.1688L12.0985 15.3081C12.0985 14.9649 11.799 14.6859 11.4312 14.6859L8.61561 14.6859C8.25561 14.6877 7.95805 14.9677 7.95805 15.3081L7.95805 18.1595C7.95805 18.2292 7.94829 18.2962 7.92781 18.3594C7.82244 19.2801 6.99707 19.9999 5.99707 19.9999L4.12 19.9999C1.8478 19.9999 1.13977e-07 18.2525 1.00568e-07 16.1051L4.99622e-08 8.00101C0.00975614 7.07658 0.456585 6.23028 1.22829 5.6732L7.6039 0.795326C9.0078 -0.26488 10.9639 -0.26488 12.3649 0.793466L18.7863 5.676C19.5405 6.22377 19.9873 7.06821 20 7.98148L20 16.1051C20 18.2525 18.1522 19.9999 15.88 19.9999Z" fill="white"/>
</svg>
