<?xml version="1.0" encoding="UTF-8"?>
<!DOCTYPE svg PUBLIC "-//W3C//DTD SVG 1.1//EN" "http://www.w3.org/Graphics/SVG/1.1/DTD/svg11.dtd">
<!-- Creator: CorelDRAW 2020 (64-Bit) -->
<svg xmlns="http://www.w3.org/2000/svg" xml:space="preserve" width="1261px" height="1375px" version="1.1" style="shape-rendering:geometricPrecision; text-rendering:geometricPrecision; image-rendering:optimizeQuality; fill-rule:evenodd; clip-rule:evenodd"
viewBox="0 0 95681 104320"
 xmlns:xlink="http://www.w3.org/1999/xlink"
 xmlns:xodm="http://www.corel.com/coreldraw/odm/2003">
 <defs>
  <style type="text/css">
   <![CDATA[
    .fil1 {fill:#7ABAFF}
    .fil0 {fill:white}
   ]]>
  </style>
 </defs>
 <g id="Слой_x0020_1">
  <metadata id="CorelCorpID_0Corel-Layer"/>
  <path class="fil0" d="M49229 51704l-40 28041 -7896 -15 240 4170 5518 9c6792,8076 -2688,20289 -12283,15113 -4161,-2245 -6264,-6660 -4963,-11423 871,-3185 5027,-6942 6755,-10206l-3416 -2252c-3800,4047 -5533,12012 -13006,7890 -2335,-1288 -3989,-3823 -4419,-6631 -627,-4087 644,-5458 2260,-8766l-2191 -2996c-14884,1027 -15626,-25540 159,-24831l1944 -3092c-1644,-3545 -3353,-5737 -1873,-10206 1013,-3058 3234,-5470 6504,-6012 4778,-792 5197,1724 7365,4965 2077,3106 1011,7758 1174,11510l3897 33c328,-1990 400,-8030 160,-10122 -458,-3999 -11617,-13418 -1540,-20855 7219,-5328 17641,2037 14856,11164 -1340,4390 -2497,3185 -6621,3346l61 4031c2293,202 5262,456 7365,-456l-162 23398c-3685,68 -10002,-1191 -12821,1089 -2488,2012 -4555,4148 -6756,6583 -2674,-1733 -5801,-9004 -8473,-10982l-3175 2367 8133 11521 -5697 5606 2531 2740c3203,-1613 8020,-7281 11151,-9893 6488,-5412 1989,-5245 15259,-4838zm4230 41022l-82 -22261 9820 76 5135 9165 3888 -1305 -6434 -12122 -12409 24 0 -11966 21636 97 46 -4375 -21689 0 79 -11433 12255 -56 6555 -12171 -3703 -1776 -5195 9860 -9984 5c0,-5480 663,-18723 -285,-23325 -2419,-11748 -17956,-15065 -24886,-5879 -2351,3118 -3298,7034 -2810,10966 -11167,-575 -15941,9332 -12891,19282 -16655,4769 -16692,28644 0,33347 -2784,10055 1491,19689 12891,19308 -2338,19135 24981,22000 28063,4539z"/>
  <path class="fil1" d="M83589 46176c8183,-2252 11065,9946 3554,11997 -8312,2270 -11345,-9852 -3554,-11997zm-8530 3883l-46 4375c1868,5117 5254,8806 11411,8168 5358,-555 9355,-5210 9255,-10618 -216,-11689 -17149,-14717 -20620,-1925z"/>
  <path class="fil1" d="M67702 17159c-1860,-8328 10328,-10843 12119,-3077 1975,8565 -10419,10690 -12119,3077zm854 7464l3703 1776c2083,-933 4491,106 7432,-2110 7744,-5836 4601,-16145 -2326,-18451 -12025,-4005 -19695,12170 -8809,18785z"/>
  <path class="fil1" d="M71638 82925c8110,-3020 11832,9470 4221,11762 -8194,2469 -11662,-8992 -4221,-11762zm-3306 -3219c-11064,8696 -1757,22613 9029,18860 10995,-3825 8305,-21289 -5141,-20165l-3888 1305z"/>
 </g>
</svg>
