<svg width="21" height="21" viewBox="0 0 21 21" fill="none" xmlns="http://www.w3.org/2000/svg">
<path fill-rule="evenodd" clip-rule="evenodd" d="M8.147 4.15952C8.58 4.49356 8.829 4.99167 8.829 5.52613C8.829 9.83424 8.977 10.9935 9.582 11.4347C9.979 11.7225 10.523 11.7196 12.356 11.6695C13.208 11.6449 14.299 11.6135 15.728 11.6135C16.298 11.6135 16.835 11.8532 17.199 12.2707C17.537 12.6588 17.685 13.1658 17.607 13.6649C16.939 17.914 13.259 20.9999 8.857 20.9999C3.973 20.9999 -3.40007e-08 17.0966 -2.44433e-08 12.2992C-1.68647e-08 8.49514 2.928 4.69103 6.527 3.82057C7.089 3.68597 7.693 3.81173 8.147 4.15952ZM6.982 5.24023C6.95 5.24023 6.918 5.24416 6.886 5.25202C3.916 5.9702 1.5 9.13177 1.5 12.2992C1.5 16.2841 4.8 19.5263 8.857 19.5263C12.514 19.5263 15.57 16.9669 16.124 13.4399C16.128 13.4104 16.142 13.3249 16.06 13.2296C15.982 13.1402 15.858 13.0872 15.728 13.0872C14.317 13.0872 13.24 13.1186 12.399 13.1422C10.363 13.2021 9.521 13.2247 8.689 12.6185C7.49931 11.7526 7.34289 10.2969 7.32998 6.21193L7.329 5.52613C7.329 5.4436 7.293 5.37483 7.221 5.31981C7.154 5.26774 7.069 5.24023 6.982 5.24023ZM18.0504 2.71559C19.8084 4.44178 20.9244 6.71029 20.8924 8.49543C20.8804 9.192 20.3654 9.77362 19.6694 9.87678C18.3114 10.0782 16.7214 10.1391 15.3144 10.1391C14.0044 10.1391 12.8514 10.087 12.1884 10.0497C11.3544 10.0016 10.6904 9.34821 10.6424 8.52884C10.5644 7.23002 10.3954 3.92992 10.5154 1.37747C10.5484 0.635712 11.1584 0.0452507 11.9044 0.0324786C14.0414 -0.0284342 16.2464 0.946171 18.0504 2.71559ZM12.0324 1.50519L12.0104 1.50519C11.9004 3.98002 12.0634 7.17696 12.1394 8.44336C12.1434 8.51901 12.1994 8.57403 12.2754 8.57796C13.3034 8.63592 16.8454 8.79705 19.3924 8.42862C19.3984 7.04924 18.4374 5.17863 16.9904 3.75799C15.5064 2.30197 13.7504 1.50519 12.0324 1.50519Z" fill="white"/>
</svg>
